<mxfile host="app.diagrams.net" modified="2024-07-04T12:35:57.501Z" agent="Mozilla/5.0 (Windows NT 10.0; Win64; x64) AppleWebKit/537.36 (KHTML, like Gecko) Chrome/126.0.0.0 Safari/537.36" etag="xAuuRiZieGf9NQ37YB4i" version="24.6.4" type="device">
  <diagram name="Página-1" id="rOPa30VAHjkVNl4hOg67">
    <mxGraphModel dx="993" dy="568" grid="1" gridSize="10" guides="1" tooltips="1" connect="1" arrows="1" fold="1" page="1" pageScale="1" pageWidth="827" pageHeight="1169" math="0" shadow="0">
      <root>
        <mxCell id="0" />
        <mxCell id="1" parent="0" />
        <mxCell id="yDC1hB9n3r-Gc5Tvth1H-5" value="" style="rounded=0;whiteSpace=wrap;html=1;fillColor=#ffe6cc;strokeColor=#d79b00;" vertex="1" parent="1">
          <mxGeometry x="80" y="60" width="1160" height="540" as="geometry" />
        </mxCell>
        <mxCell id="yDC1hB9n3r-Gc5Tvth1H-18" value="" style="edgeStyle=orthogonalEdgeStyle;rounded=0;orthogonalLoop=1;jettySize=auto;html=1;entryX=0;entryY=0.5;entryDx=0;entryDy=0;" edge="1" parent="1" source="yDC1hB9n3r-Gc5Tvth1H-1" target="yDC1hB9n3r-Gc5Tvth1H-11">
          <mxGeometry relative="1" as="geometry" />
        </mxCell>
        <mxCell id="yDC1hB9n3r-Gc5Tvth1H-22" style="edgeStyle=orthogonalEdgeStyle;rounded=0;orthogonalLoop=1;jettySize=auto;html=1;exitX=0.5;exitY=0;exitDx=0;exitDy=0;exitPerimeter=0;entryX=0.5;entryY=0;entryDx=0;entryDy=0;" edge="1" parent="1" source="yDC1hB9n3r-Gc5Tvth1H-1" target="yDC1hB9n3r-Gc5Tvth1H-19">
          <mxGeometry relative="1" as="geometry" />
        </mxCell>
        <mxCell id="yDC1hB9n3r-Gc5Tvth1H-23" style="edgeStyle=orthogonalEdgeStyle;rounded=0;orthogonalLoop=1;jettySize=auto;html=1;exitX=0.5;exitY=0;exitDx=0;exitDy=0;exitPerimeter=0;entryX=0.5;entryY=0;entryDx=0;entryDy=0;" edge="1" parent="1" source="yDC1hB9n3r-Gc5Tvth1H-1" target="yDC1hB9n3r-Gc5Tvth1H-20">
          <mxGeometry relative="1" as="geometry" />
        </mxCell>
        <mxCell id="yDC1hB9n3r-Gc5Tvth1H-24" style="edgeStyle=orthogonalEdgeStyle;rounded=0;orthogonalLoop=1;jettySize=auto;html=1;entryX=0.5;entryY=0;entryDx=0;entryDy=0;" edge="1" parent="1" source="yDC1hB9n3r-Gc5Tvth1H-1" target="yDC1hB9n3r-Gc5Tvth1H-21">
          <mxGeometry relative="1" as="geometry">
            <Array as="points">
              <mxPoint x="25" y="30" />
              <mxPoint x="560" y="30" />
            </Array>
          </mxGeometry>
        </mxCell>
        <mxCell id="yDC1hB9n3r-Gc5Tvth1H-1" value="Usuario" style="shape=umlActor;verticalLabelPosition=bottom;verticalAlign=top;html=1;outlineConnect=0;" vertex="1" parent="1">
          <mxGeometry x="10" y="275" width="30" height="60" as="geometry" />
        </mxCell>
        <mxCell id="yDC1hB9n3r-Gc5Tvth1H-6" value="" style="rounded=0;whiteSpace=wrap;html=1;fillColor=#fff2cc;strokeColor=#d6b656;" vertex="1" parent="1">
          <mxGeometry x="300" y="155" width="910" height="380" as="geometry" />
        </mxCell>
        <mxCell id="yDC1hB9n3r-Gc5Tvth1H-7" value="Toda la aplicación" style="rounded=0;whiteSpace=wrap;html=1;fillColor=#000000;fontColor=#FFFFFF;" vertex="1" parent="1">
          <mxGeometry x="910" y="545" width="160" height="40" as="geometry" />
        </mxCell>
        <mxCell id="yDC1hB9n3r-Gc5Tvth1H-10" value="Tras inicio de sesión" style="rounded=0;whiteSpace=wrap;html=1;fillColor=#000000;fontColor=#FFFFFF;" vertex="1" parent="1">
          <mxGeometry x="910" y="480" width="160" height="40" as="geometry" />
        </mxCell>
        <mxCell id="yDC1hB9n3r-Gc5Tvth1H-13" style="edgeStyle=orthogonalEdgeStyle;rounded=0;orthogonalLoop=1;jettySize=auto;html=1;exitX=0.5;exitY=1;exitDx=0;exitDy=0;entryX=0.5;entryY=0;entryDx=0;entryDy=0;" edge="1" parent="1" source="yDC1hB9n3r-Gc5Tvth1H-11" target="yDC1hB9n3r-Gc5Tvth1H-12">
          <mxGeometry relative="1" as="geometry" />
        </mxCell>
        <mxCell id="yDC1hB9n3r-Gc5Tvth1H-16" style="edgeStyle=orthogonalEdgeStyle;rounded=0;orthogonalLoop=1;jettySize=auto;html=1;exitX=1;exitY=0.5;exitDx=0;exitDy=0;entryX=0;entryY=0.5;entryDx=0;entryDy=0;" edge="1" parent="1" source="yDC1hB9n3r-Gc5Tvth1H-11" target="yDC1hB9n3r-Gc5Tvth1H-14">
          <mxGeometry relative="1" as="geometry" />
        </mxCell>
        <mxCell id="yDC1hB9n3r-Gc5Tvth1H-11" value="Inicio" style="ellipse;whiteSpace=wrap;html=1;fillColor=#dae8fc;strokeColor=#6c8ebf;" vertex="1" parent="1">
          <mxGeometry x="90" y="280" width="80" height="50" as="geometry" />
        </mxCell>
        <mxCell id="yDC1hB9n3r-Gc5Tvth1H-15" style="edgeStyle=orthogonalEdgeStyle;rounded=0;orthogonalLoop=1;jettySize=auto;html=1;exitX=1;exitY=0.5;exitDx=0;exitDy=0;entryX=0.5;entryY=1;entryDx=0;entryDy=0;" edge="1" parent="1" source="yDC1hB9n3r-Gc5Tvth1H-12" target="yDC1hB9n3r-Gc5Tvth1H-14">
          <mxGeometry relative="1" as="geometry" />
        </mxCell>
        <mxCell id="yDC1hB9n3r-Gc5Tvth1H-12" value="Regisrtro" style="ellipse;whiteSpace=wrap;html=1;fillColor=#dae8fc;strokeColor=#6c8ebf;" vertex="1" parent="1">
          <mxGeometry x="90" y="370" width="80" height="50" as="geometry" />
        </mxCell>
        <mxCell id="yDC1hB9n3r-Gc5Tvth1H-35" style="edgeStyle=orthogonalEdgeStyle;rounded=0;orthogonalLoop=1;jettySize=auto;html=1;entryX=0.5;entryY=0;entryDx=0;entryDy=0;exitX=0.5;exitY=0;exitDx=0;exitDy=0;" edge="1" parent="1" source="yDC1hB9n3r-Gc5Tvth1H-14" target="yDC1hB9n3r-Gc5Tvth1H-26">
          <mxGeometry relative="1" as="geometry">
            <Array as="points">
              <mxPoint x="240" y="110" />
              <mxPoint x="675" y="110" />
            </Array>
          </mxGeometry>
        </mxCell>
        <mxCell id="yDC1hB9n3r-Gc5Tvth1H-36" style="edgeStyle=orthogonalEdgeStyle;rounded=0;orthogonalLoop=1;jettySize=auto;html=1;entryX=0.5;entryY=0;entryDx=0;entryDy=0;" edge="1" parent="1" source="yDC1hB9n3r-Gc5Tvth1H-14" target="yDC1hB9n3r-Gc5Tvth1H-30">
          <mxGeometry relative="1" as="geometry">
            <Array as="points">
              <mxPoint x="240" y="110" />
              <mxPoint x="765" y="110" />
            </Array>
          </mxGeometry>
        </mxCell>
        <mxCell id="yDC1hB9n3r-Gc5Tvth1H-37" style="edgeStyle=orthogonalEdgeStyle;rounded=0;orthogonalLoop=1;jettySize=auto;html=1;entryX=0.5;entryY=0;entryDx=0;entryDy=0;" edge="1" parent="1" source="yDC1hB9n3r-Gc5Tvth1H-14" target="yDC1hB9n3r-Gc5Tvth1H-31">
          <mxGeometry relative="1" as="geometry">
            <Array as="points">
              <mxPoint x="240" y="110" />
              <mxPoint x="855" y="110" />
            </Array>
          </mxGeometry>
        </mxCell>
        <mxCell id="yDC1hB9n3r-Gc5Tvth1H-38" style="edgeStyle=orthogonalEdgeStyle;rounded=0;orthogonalLoop=1;jettySize=auto;html=1;entryX=0.5;entryY=0;entryDx=0;entryDy=0;" edge="1" parent="1" source="yDC1hB9n3r-Gc5Tvth1H-14" target="yDC1hB9n3r-Gc5Tvth1H-32">
          <mxGeometry relative="1" as="geometry">
            <Array as="points">
              <mxPoint x="240" y="110" />
              <mxPoint x="945" y="110" />
            </Array>
          </mxGeometry>
        </mxCell>
        <mxCell id="yDC1hB9n3r-Gc5Tvth1H-39" style="edgeStyle=orthogonalEdgeStyle;rounded=0;orthogonalLoop=1;jettySize=auto;html=1;entryX=0.5;entryY=0;entryDx=0;entryDy=0;" edge="1" parent="1" source="yDC1hB9n3r-Gc5Tvth1H-14" target="yDC1hB9n3r-Gc5Tvth1H-33">
          <mxGeometry relative="1" as="geometry">
            <Array as="points">
              <mxPoint x="240" y="110" />
              <mxPoint x="1035" y="110" />
            </Array>
          </mxGeometry>
        </mxCell>
        <mxCell id="yDC1hB9n3r-Gc5Tvth1H-48" style="edgeStyle=orthogonalEdgeStyle;rounded=0;orthogonalLoop=1;jettySize=auto;html=1;entryX=0;entryY=0.5;entryDx=0;entryDy=0;" edge="1" parent="1" source="yDC1hB9n3r-Gc5Tvth1H-14" target="yDC1hB9n3r-Gc5Tvth1H-42">
          <mxGeometry relative="1" as="geometry">
            <Array as="points">
              <mxPoint x="310" y="305" />
              <mxPoint x="310" y="265" />
            </Array>
          </mxGeometry>
        </mxCell>
        <mxCell id="yDC1hB9n3r-Gc5Tvth1H-49" style="edgeStyle=orthogonalEdgeStyle;rounded=0;orthogonalLoop=1;jettySize=auto;html=1;entryX=0;entryY=0.5;entryDx=0;entryDy=0;" edge="1" parent="1" source="yDC1hB9n3r-Gc5Tvth1H-14" target="yDC1hB9n3r-Gc5Tvth1H-41">
          <mxGeometry relative="1" as="geometry">
            <Array as="points">
              <mxPoint x="310" y="305" />
              <mxPoint x="310" y="385" />
            </Array>
          </mxGeometry>
        </mxCell>
        <mxCell id="yDC1hB9n3r-Gc5Tvth1H-14" value="Login" style="ellipse;whiteSpace=wrap;html=1;fillColor=#dae8fc;strokeColor=#6c8ebf;" vertex="1" parent="1">
          <mxGeometry x="200" y="280" width="80" height="50" as="geometry" />
        </mxCell>
        <mxCell id="yDC1hB9n3r-Gc5Tvth1H-19" value="Repositorio" style="ellipse;whiteSpace=wrap;html=1;fillColor=#dae8fc;strokeColor=#6c8ebf;" vertex="1" parent="1">
          <mxGeometry x="320" y="50" width="80" height="50" as="geometry" />
        </mxCell>
        <mxCell id="yDC1hB9n3r-Gc5Tvth1H-20" value="Acerca de&lt;span style=&quot;color: rgba(0, 0, 0, 0); font-family: monospace; font-size: 0px; text-align: start; text-wrap: nowrap;&quot;&gt;%3CmxGraphModel%3E%3Croot%3E%3CmxCell%20id%3D%220%22%2F%3E%3CmxCell%20id%3D%221%22%20parent%3D%220%22%2F%3E%3CmxCell%20id%3D%222%22%20value%3D%22Repositorio%22%20style%3D%22ellipse%3BwhiteSpace%3Dwrap%3Bhtml%3D1%3BfillColor%3D%23dae8fc%3BstrokeColor%3D%236c8ebf%3B%22%20vertex%3D%221%22%20parent%3D%221%22%3E%3CmxGeometry%20x%3D%22250%22%20width%3D%2280%22%20height%3D%2250%22%20as%3D%22geometry%22%2F%3E%3C%2FmxCell%3E%3C%2Froot%3E%3C%2FmxGraphModel%3E&lt;/span&gt;" style="ellipse;whiteSpace=wrap;html=1;fillColor=#dae8fc;strokeColor=#6c8ebf;" vertex="1" parent="1">
          <mxGeometry x="420" y="50" width="80" height="50" as="geometry" />
        </mxCell>
        <mxCell id="yDC1hB9n3r-Gc5Tvth1H-21" value="Wiki" style="ellipse;whiteSpace=wrap;html=1;fillColor=#dae8fc;strokeColor=#6c8ebf;" vertex="1" parent="1">
          <mxGeometry x="520" y="50" width="80" height="50" as="geometry" />
        </mxCell>
        <mxCell id="yDC1hB9n3r-Gc5Tvth1H-25" value="Apartados accesibles desde cualquier pantalla" style="text;html=1;align=center;verticalAlign=middle;whiteSpace=wrap;rounded=0;fillColor=default;" vertex="1" parent="1">
          <mxGeometry x="60" y="20" width="150" height="30" as="geometry" />
        </mxCell>
        <mxCell id="yDC1hB9n3r-Gc5Tvth1H-26" value="1" style="ellipse;whiteSpace=wrap;html=1;fillColor=#dae8fc;strokeColor=#6c8ebf;" vertex="1" parent="1">
          <mxGeometry x="640" y="130" width="70" height="50" as="geometry" />
        </mxCell>
        <mxCell id="yDC1hB9n3r-Gc5Tvth1H-30" value="2" style="ellipse;whiteSpace=wrap;html=1;fillColor=#dae8fc;strokeColor=#6c8ebf;" vertex="1" parent="1">
          <mxGeometry x="730" y="130" width="70" height="50" as="geometry" />
        </mxCell>
        <mxCell id="yDC1hB9n3r-Gc5Tvth1H-31" value="3" style="ellipse;whiteSpace=wrap;html=1;fillColor=#dae8fc;strokeColor=#6c8ebf;" vertex="1" parent="1">
          <mxGeometry x="820" y="130" width="70" height="50" as="geometry" />
        </mxCell>
        <mxCell id="yDC1hB9n3r-Gc5Tvth1H-32" value="4" style="ellipse;whiteSpace=wrap;html=1;fillColor=#dae8fc;strokeColor=#6c8ebf;" vertex="1" parent="1">
          <mxGeometry x="910" y="130" width="70" height="50" as="geometry" />
        </mxCell>
        <mxCell id="yDC1hB9n3r-Gc5Tvth1H-33" value="Logout" style="ellipse;whiteSpace=wrap;html=1;fillColor=#dae8fc;strokeColor=#6c8ebf;" vertex="1" parent="1">
          <mxGeometry x="1000" y="130" width="70" height="50" as="geometry" />
        </mxCell>
        <mxCell id="yDC1hB9n3r-Gc5Tvth1H-40" value="Apartados accesibles desde cualquier pantalla tras inicio de sesión" style="text;html=1;align=center;verticalAlign=middle;whiteSpace=wrap;rounded=0;fillColor=#ffe6cc;strokeColor=#d79b00;" vertex="1" parent="1">
          <mxGeometry x="270" y="110" width="250" height="30" as="geometry" />
        </mxCell>
        <mxCell id="yDC1hB9n3r-Gc5Tvth1H-52" style="edgeStyle=orthogonalEdgeStyle;rounded=0;orthogonalLoop=1;jettySize=auto;html=1;entryX=0;entryY=0.5;entryDx=0;entryDy=0;" edge="1" parent="1" source="yDC1hB9n3r-Gc5Tvth1H-41" target="yDC1hB9n3r-Gc5Tvth1H-43">
          <mxGeometry relative="1" as="geometry" />
        </mxCell>
        <mxCell id="yDC1hB9n3r-Gc5Tvth1H-53" style="edgeStyle=orthogonalEdgeStyle;rounded=0;orthogonalLoop=1;jettySize=auto;html=1;entryX=0;entryY=0.5;entryDx=0;entryDy=0;" edge="1" parent="1" source="yDC1hB9n3r-Gc5Tvth1H-41" target="yDC1hB9n3r-Gc5Tvth1H-44">
          <mxGeometry relative="1" as="geometry" />
        </mxCell>
        <mxCell id="yDC1hB9n3r-Gc5Tvth1H-41" value="Visuali&lt;span style=&quot;color: rgba(0, 0, 0, 0); font-family: monospace; font-size: 0px; text-align: start; text-wrap: nowrap;&quot;&gt;%3CmxGraphModel%3E%3Croot%3E%3CmxCell%20id%3D%220%22%2F%3E%3CmxCell%20id%3D%221%22%20parent%3D%220%22%2F%3E%3CmxCell%20id%3D%222%22%20value%3D%22Login%22%20style%3D%22ellipse%3BwhiteSpace%3Dwrap%3Bhtml%3D1%3BfillColor%3D%23dae8fc%3BstrokeColor%3D%236c8ebf%3B%22%20vertex%3D%221%22%20parent%3D%221%22%3E%3CmxGeometry%20x%3D%22200%22%20y%3D%22280%22%20width%3D%2280%22%20height%3D%2250%22%20as%3D%22geometry%22%2F%3E%3C%2FmxCell%3E%3C%2Froot%3E%3C%2FmxGraphModel%3E&lt;/span&gt;za redes&lt;span style=&quot;color: rgba(0, 0, 0, 0); font-family: monospace; font-size: 0px; text-align: start; text-wrap: nowrap;&quot;&gt;%3CmxGraphModel%3E%3Croot%3E%3CmxCell%20id%3D%220%22%2F%3E%3CmxCell%20id%3D%221%22%20parent%3D%220%22%2F%3E%3CmxCell%20id%3D%222%22%20value%3D%22Login%22%20style%3D%22ellipse%3BwhiteSpace%3Dwrap%3Bhtml%3D1%3BfillColor%3D%23dae8fc%3BstrokeColor%3D%236c8ebf%3B%22%20vertex%3D%221%22%20parent%3D%221%22%3E%3CmxGeometry%20x%3D%22200%22%20y%3D%22280%22%20width%3D%2280%22%20height%3D%2250%22%20as%3D%22geometry%22%2F%3E%3C%2FmxCell%3E%3C%2Froot%3E%3C%2FmxGraphModel%3E&lt;/span&gt;" style="ellipse;whiteSpace=wrap;html=1;fillColor=#dae8fc;strokeColor=#6c8ebf;" vertex="1" parent="1">
          <mxGeometry x="340" y="360" width="80" height="50" as="geometry" />
        </mxCell>
        <mxCell id="yDC1hB9n3r-Gc5Tvth1H-50" style="edgeStyle=orthogonalEdgeStyle;rounded=0;orthogonalLoop=1;jettySize=auto;html=1;exitX=1;exitY=0.5;exitDx=0;exitDy=0;entryX=0;entryY=0.5;entryDx=0;entryDy=0;" edge="1" parent="1" source="yDC1hB9n3r-Gc5Tvth1H-42" target="yDC1hB9n3r-Gc5Tvth1H-45">
          <mxGeometry relative="1" as="geometry" />
        </mxCell>
        <mxCell id="yDC1hB9n3r-Gc5Tvth1H-51" style="edgeStyle=orthogonalEdgeStyle;rounded=0;orthogonalLoop=1;jettySize=auto;html=1;entryX=0;entryY=0.5;entryDx=0;entryDy=0;" edge="1" parent="1" source="yDC1hB9n3r-Gc5Tvth1H-42" target="yDC1hB9n3r-Gc5Tvth1H-46">
          <mxGeometry relative="1" as="geometry" />
        </mxCell>
        <mxCell id="yDC1hB9n3r-Gc5Tvth1H-42" value="Generación de redes" style="ellipse;whiteSpace=wrap;html=1;fillColor=#dae8fc;strokeColor=#6c8ebf;" vertex="1" parent="1">
          <mxGeometry x="340" y="240" width="80" height="50" as="geometry" />
        </mxCell>
        <mxCell id="yDC1hB9n3r-Gc5Tvth1H-43" value="Descargar red (3)" style="ellipse;whiteSpace=wrap;html=1;fillColor=#dae8fc;strokeColor=#6c8ebf;" vertex="1" parent="1">
          <mxGeometry x="460" y="360" width="80" height="50" as="geometry" />
        </mxCell>
        <mxCell id="yDC1hB9n3r-Gc5Tvth1H-54" style="edgeStyle=orthogonalEdgeStyle;rounded=0;orthogonalLoop=1;jettySize=auto;html=1;entryX=0.5;entryY=1;entryDx=0;entryDy=0;" edge="1" parent="1" source="yDC1hB9n3r-Gc5Tvth1H-44" target="yDC1hB9n3r-Gc5Tvth1H-42">
          <mxGeometry relative="1" as="geometry">
            <Array as="points">
              <mxPoint x="560" y="475" />
              <mxPoint x="560" y="350" />
              <mxPoint x="380" y="350" />
            </Array>
          </mxGeometry>
        </mxCell>
        <mxCell id="yDC1hB9n3r-Gc5Tvth1H-44" value="Muestra ejemplos (4)" style="ellipse;whiteSpace=wrap;html=1;fillColor=#dae8fc;strokeColor=#6c8ebf;" vertex="1" parent="1">
          <mxGeometry x="460" y="450" width="80" height="50" as="geometry" />
        </mxCell>
        <mxCell id="yDC1hB9n3r-Gc5Tvth1H-57" style="edgeStyle=orthogonalEdgeStyle;rounded=0;orthogonalLoop=1;jettySize=auto;html=1;entryX=0.5;entryY=0;entryDx=0;entryDy=0;" edge="1" parent="1" source="yDC1hB9n3r-Gc5Tvth1H-45" target="yDC1hB9n3r-Gc5Tvth1H-56">
          <mxGeometry relative="1" as="geometry" />
        </mxCell>
        <mxCell id="yDC1hB9n3r-Gc5Tvth1H-45" value="Usando fichero (1)" style="ellipse;whiteSpace=wrap;html=1;fillColor=#dae8fc;strokeColor=#6c8ebf;" vertex="1" parent="1">
          <mxGeometry x="460" y="190" width="80" height="50" as="geometry" />
        </mxCell>
        <mxCell id="yDC1hB9n3r-Gc5Tvth1H-58" style="edgeStyle=orthogonalEdgeStyle;rounded=0;orthogonalLoop=1;jettySize=auto;html=1;entryX=0.5;entryY=1;entryDx=0;entryDy=0;" edge="1" parent="1" source="yDC1hB9n3r-Gc5Tvth1H-46" target="yDC1hB9n3r-Gc5Tvth1H-56">
          <mxGeometry relative="1" as="geometry" />
        </mxCell>
        <mxCell id="yDC1hB9n3r-Gc5Tvth1H-46" value="Modo aleatorio (2)" style="ellipse;whiteSpace=wrap;html=1;fillColor=#dae8fc;strokeColor=#6c8ebf;" vertex="1" parent="1">
          <mxGeometry x="460" y="290" width="80" height="50" as="geometry" />
        </mxCell>
        <mxCell id="yDC1hB9n3r-Gc5Tvth1H-61" style="edgeStyle=orthogonalEdgeStyle;rounded=0;orthogonalLoop=1;jettySize=auto;html=1;entryX=0;entryY=0.5;entryDx=0;entryDy=0;" edge="1" parent="1" source="yDC1hB9n3r-Gc5Tvth1H-56" target="yDC1hB9n3r-Gc5Tvth1H-60">
          <mxGeometry relative="1" as="geometry" />
        </mxCell>
        <mxCell id="yDC1hB9n3r-Gc5Tvth1H-62" style="edgeStyle=orthogonalEdgeStyle;rounded=0;orthogonalLoop=1;jettySize=auto;html=1;entryX=0;entryY=0.5;entryDx=0;entryDy=0;" edge="1" parent="1" source="yDC1hB9n3r-Gc5Tvth1H-56" target="yDC1hB9n3r-Gc5Tvth1H-59">
          <mxGeometry relative="1" as="geometry" />
        </mxCell>
        <mxCell id="yDC1hB9n3r-Gc5Tvth1H-56" value="Selección de algortimo" style="ellipse;whiteSpace=wrap;html=1;fillColor=#dae8fc;strokeColor=#6c8ebf;" vertex="1" parent="1">
          <mxGeometry x="565" y="240" width="80" height="50" as="geometry" />
        </mxCell>
        <mxCell id="yDC1hB9n3r-Gc5Tvth1H-69" style="edgeStyle=orthogonalEdgeStyle;rounded=0;orthogonalLoop=1;jettySize=auto;html=1;exitX=1;exitY=0.5;exitDx=0;exitDy=0;entryX=0.5;entryY=0;entryDx=0;entryDy=0;" edge="1" parent="1" source="yDC1hB9n3r-Gc5Tvth1H-59" target="yDC1hB9n3r-Gc5Tvth1H-67">
          <mxGeometry relative="1" as="geometry">
            <Array as="points">
              <mxPoint x="880" y="315" />
              <mxPoint x="880" y="415" />
              <mxPoint x="1010" y="415" />
            </Array>
          </mxGeometry>
        </mxCell>
        <mxCell id="yDC1hB9n3r-Gc5Tvth1H-77" value="Por defecto" style="edgeLabel;html=1;align=center;verticalAlign=middle;resizable=0;points=[];" vertex="1" connectable="0" parent="yDC1hB9n3r-Gc5Tvth1H-69">
          <mxGeometry x="-0.6461" y="2" relative="1" as="geometry">
            <mxPoint as="offset" />
          </mxGeometry>
        </mxCell>
        <mxCell id="yDC1hB9n3r-Gc5Tvth1H-75" style="edgeStyle=orthogonalEdgeStyle;rounded=0;orthogonalLoop=1;jettySize=auto;html=1;entryX=0.5;entryY=0;entryDx=0;entryDy=0;labelBackgroundColor=#FFF2CC;" edge="1" parent="1" source="yDC1hB9n3r-Gc5Tvth1H-59" target="yDC1hB9n3r-Gc5Tvth1H-66">
          <mxGeometry relative="1" as="geometry" />
        </mxCell>
        <mxCell id="yDC1hB9n3r-Gc5Tvth1H-76" value="Avanzado" style="edgeLabel;html=1;align=center;verticalAlign=middle;resizable=0;points=[];" vertex="1" connectable="0" parent="yDC1hB9n3r-Gc5Tvth1H-75">
          <mxGeometry x="-0.2744" relative="1" as="geometry">
            <mxPoint as="offset" />
          </mxGeometry>
        </mxCell>
        <mxCell id="yDC1hB9n3r-Gc5Tvth1H-59" value="Recocido Simulado" style="ellipse;whiteSpace=wrap;html=1;fillColor=#dae8fc;strokeColor=#6c8ebf;" vertex="1" parent="1">
          <mxGeometry x="690" y="290" width="80" height="50" as="geometry" />
        </mxCell>
        <mxCell id="yDC1hB9n3r-Gc5Tvth1H-81" style="edgeStyle=orthogonalEdgeStyle;rounded=0;orthogonalLoop=1;jettySize=auto;html=1;exitX=1;exitY=0.5;exitDx=0;exitDy=0;entryX=0;entryY=0.5;entryDx=0;entryDy=0;" edge="1" parent="1" source="yDC1hB9n3r-Gc5Tvth1H-60" target="yDC1hB9n3r-Gc5Tvth1H-65">
          <mxGeometry relative="1" as="geometry" />
        </mxCell>
        <mxCell id="yDC1hB9n3r-Gc5Tvth1H-84" value="Avanzado" style="edgeLabel;html=1;align=center;verticalAlign=middle;resizable=0;points=[];" vertex="1" connectable="0" parent="yDC1hB9n3r-Gc5Tvth1H-81">
          <mxGeometry x="-0.3875" y="-5" relative="1" as="geometry">
            <mxPoint x="-1" as="offset" />
          </mxGeometry>
        </mxCell>
        <mxCell id="yDC1hB9n3r-Gc5Tvth1H-83" value="Por defecto" style="edgeStyle=orthogonalEdgeStyle;rounded=0;orthogonalLoop=1;jettySize=auto;html=1;entryX=0;entryY=0.5;entryDx=0;entryDy=0;" edge="1" parent="1" source="yDC1hB9n3r-Gc5Tvth1H-60" target="yDC1hB9n3r-Gc5Tvth1H-79">
          <mxGeometry relative="1" as="geometry">
            <Array as="points">
              <mxPoint x="730" y="280" />
              <mxPoint x="1040" y="280" />
              <mxPoint x="1040" y="215" />
            </Array>
          </mxGeometry>
        </mxCell>
        <mxCell id="yDC1hB9n3r-Gc5Tvth1H-60" value="Algortimo genético" style="ellipse;whiteSpace=wrap;html=1;fillColor=#dae8fc;strokeColor=#6c8ebf;" vertex="1" parent="1">
          <mxGeometry x="690" y="190" width="80" height="50" as="geometry" />
        </mxCell>
        <mxCell id="yDC1hB9n3r-Gc5Tvth1H-82" style="edgeStyle=orthogonalEdgeStyle;rounded=0;orthogonalLoop=1;jettySize=auto;html=1;entryX=0;entryY=0.5;entryDx=0;entryDy=0;" edge="1" parent="1" source="yDC1hB9n3r-Gc5Tvth1H-65" target="yDC1hB9n3r-Gc5Tvth1H-79">
          <mxGeometry relative="1" as="geometry" />
        </mxCell>
        <mxCell id="yDC1hB9n3r-Gc5Tvth1H-65" value="Selección de parámetros recocido simulado" style="ellipse;whiteSpace=wrap;html=1;fillColor=#dae8fc;strokeColor=#6c8ebf;" vertex="1" parent="1">
          <mxGeometry x="850" y="190" width="140" height="50" as="geometry" />
        </mxCell>
        <mxCell id="yDC1hB9n3r-Gc5Tvth1H-73" style="edgeStyle=orthogonalEdgeStyle;rounded=0;orthogonalLoop=1;jettySize=auto;html=1;entryX=0;entryY=0.5;entryDx=0;entryDy=0;" edge="1" parent="1" source="yDC1hB9n3r-Gc5Tvth1H-66" target="yDC1hB9n3r-Gc5Tvth1H-67">
          <mxGeometry relative="1" as="geometry">
            <Array as="points">
              <mxPoint x="830" y="415" />
            </Array>
          </mxGeometry>
        </mxCell>
        <mxCell id="yDC1hB9n3r-Gc5Tvth1H-66" value="Selección de parámetros algoritmo genético" style="ellipse;whiteSpace=wrap;html=1;fillColor=#dae8fc;strokeColor=#6c8ebf;" vertex="1" parent="1">
          <mxGeometry x="660" y="390" width="140" height="50" as="geometry" />
        </mxCell>
        <mxCell id="yDC1hB9n3r-Gc5Tvth1H-74" style="edgeStyle=orthogonalEdgeStyle;rounded=0;orthogonalLoop=1;jettySize=auto;html=1;entryX=1;entryY=0.5;entryDx=0;entryDy=0;" edge="1" parent="1" source="yDC1hB9n3r-Gc5Tvth1H-67" target="yDC1hB9n3r-Gc5Tvth1H-43">
          <mxGeometry relative="1" as="geometry">
            <Array as="points">
              <mxPoint x="1010" y="460" />
              <mxPoint x="610" y="460" />
              <mxPoint x="610" y="385" />
            </Array>
          </mxGeometry>
        </mxCell>
        <mxCell id="yDC1hB9n3r-Gc5Tvth1H-67" value="Visualización del resultado recocido simulado" style="ellipse;whiteSpace=wrap;html=1;fillColor=#dae8fc;strokeColor=#6c8ebf;" vertex="1" parent="1">
          <mxGeometry x="940" y="390" width="140" height="50" as="geometry" />
        </mxCell>
        <mxCell id="yDC1hB9n3r-Gc5Tvth1H-78" value="Descarga de las soluciones" style="ellipse;whiteSpace=wrap;html=1;fillColor=#dae8fc;strokeColor=#6c8ebf;" vertex="1" parent="1">
          <mxGeometry x="1090" y="260" width="80" height="50" as="geometry" />
        </mxCell>
        <mxCell id="yDC1hB9n3r-Gc5Tvth1H-80" style="edgeStyle=orthogonalEdgeStyle;rounded=0;orthogonalLoop=1;jettySize=auto;html=1;exitX=0.5;exitY=1;exitDx=0;exitDy=0;entryX=0.5;entryY=0;entryDx=0;entryDy=0;" edge="1" parent="1" source="yDC1hB9n3r-Gc5Tvth1H-79" target="yDC1hB9n3r-Gc5Tvth1H-78">
          <mxGeometry relative="1" as="geometry" />
        </mxCell>
        <mxCell id="yDC1hB9n3r-Gc5Tvth1H-79" value="Visualización de las soluciones algoritmo genético" style="ellipse;whiteSpace=wrap;html=1;fillColor=#dae8fc;strokeColor=#6c8ebf;" vertex="1" parent="1">
          <mxGeometry x="1060" y="190" width="140" height="50" as="geometry" />
        </mxCell>
      </root>
    </mxGraphModel>
  </diagram>
</mxfile>
